<svg xmlns="http://www.w3.org/2000/svg" width="1800" height="937.46" viewBox="-180 -185.96 1800 937.46"><path fill="#fff" d="M-70-30.31h700v500H-70z" font-family="none" font-size="none" font-weight="none" style="mix-blend-mode:normal" text-anchor="none" transform="scale(2.57143 1.6)" vector-effect="non-scaling-stroke"/><g fill="none" stroke-linecap="none" stroke-linejoin="none" stroke-miterlimit="10" stroke-width="none" font-family="none" font-size="none" font-weight="none" style="mix-blend-mode:normal" text-anchor="none"><path stroke="#000" stroke-linecap="round" stroke-linejoin="round" stroke-width="4" d="M777.8 29.93 523.07 175.47 270 323.9l-250.64 146v150.9L270 465.06l253.08-146.01 253.09-141.22z"/><path stroke="#000" stroke-linecap="round" stroke-linejoin="round" stroke-width="4" d="m1025.87 175.43 256.45 148.48v148.44L1031.67 323.9 776.16 180.25l1.61-147.89z"/><path stroke="#000" stroke-linecap="round" stroke-linejoin="round" stroke-width="4" d="m521.27 323.75 254.88 146.17 253.41-147.22-3.63-144.9-249.78 146.1L522.9 175.78z"/><path stroke="#000" stroke-linecap="round" stroke-linejoin="round" stroke-width="4" d="m270 465.05 254 153.4 252.23-148.93 250.72 143.7 254.3-140.92.37-151.4-253.64 149.32L773.9 323.54m-501.47.36-.65 142.23m756.2 4.09-.42 142.67M777.8 330l.07 138.57"/><path fill="#fff" stroke="#000" stroke-linecap="round" stroke-linejoin="round" stroke-width="4" d="M737.33 31.9a40 40 0 1 1 80.01 0 40 40 0 0 1-80 0z"/><path fill="#fff" stroke="red" stroke-linecap="round" stroke-linejoin="round" stroke-width="4" d="M490.54 175.77a30.73 30.73 0 1 1 61.46 0 30.73 30.73 0 0 1-61.46 0z"/><path fill="#fff" stroke="#000" stroke-linecap="round" stroke-linejoin="round" stroke-width="4" d="M239.26 320.9a30.73 30.73 0 1 1 61.47 0 30.73 30.73 0 0 1-61.47 0z"/><path fill="#fff" stroke="red" stroke-linecap="round" stroke-linejoin="round" stroke-width="4" d="M-11.39 469.78a30.73 30.73 0 1 1 61.47 0 30.73 30.73 0 0 1-61.47 0z"/><path fill="#fff" stroke="#000" stroke-linecap="round" stroke-linejoin="round" stroke-width="4" d="M740.98 175.89a35.72 35.72 0 1 1 71.44 0 35.72 35.72 0 0 1-71.44 0zm256.06-.12a30.73 30.73 0 1 1 61.46 0 30.73 30.73 0 0 1-61.46 0zM1237.5 320.9a42.9 42.9 0 1 1 85.8 0 42.9 42.9 0 0 1-85.8 0z"/><text x="59.65" y="360.46" fill="#000" stroke-linecap="butt" stroke-linejoin="miter" stroke-width="1" font-family="font-AcariSans-Light" font-size="40" font-weight="normal" text-anchor="middle" transform="scale(1.8533)">Bool</text><text x="607.39" y="359.8" fill="#000" stroke-linecap="butt" stroke-linejoin="miter" stroke-width="1" font-family="font-AcariSans-Light" font-size="40" font-weight="normal" text-anchor="middle" transform="scale(1.8533)">~MOG</text><text x="737.02" y="282.84" fill="#000" stroke-linecap="butt" stroke-linejoin="miter" stroke-width="1" font-family="font-AcariSans-Light" font-size="40" font-weight="normal" text-anchor="middle" transform="scale(1.8533)">PEG</text><text x="-34.06" y="232.36" fill="#000" stroke-linecap="butt" stroke-linejoin="miter" stroke-width="1" font-family="font-AcariSans-Light" font-size="40" font-weight="normal" text-anchor="middle" transform="scale(1.8533)">REE</text><text x="240.37" y="74.8" fill="#000" stroke-linecap="butt" stroke-linejoin="miter" stroke-width="1" font-family="font-AcariSans-Light" font-size="40" font-weight="normal" text-anchor="middle" transform="scale(1.8533)">RE</text><text x="210.99" y="264.9" fill="#000" stroke-linecap="butt" stroke-linejoin="miter" stroke-width="1" font-family="font-AcariSans-Light" font-size="40" font-weight="normal" text-anchor="middle" transform="scale(1.8533)">Conj</text><text x="311.33" y="368.99" fill="#000" stroke-linecap="butt" stroke-linejoin="miter" stroke-width="1" font-family="font-AcariSans-Light" font-size="40" font-weight="normal" text-anchor="middle" transform="scale(1.8533)">ConjCont</text><text x="344.26" y="188.43" fill="#000" stroke-linecap="butt" stroke-linejoin="miter" stroke-width="1" font-family="font-AcariSans-Light" font-size="40" font-weight="normal" text-anchor="middle" transform="scale(1.8533)">CFG</text><text x="715.1" y="99.16" fill="#000" stroke="#000" stroke-linecap="butt" stroke-linejoin="miter" stroke-opacity="0" stroke-width="1" font-family="font-AcariSans-Light" font-size="40" font-weight="normal" text-anchor="middle" transform="scale(1.8533)">REwLA</text><path fill="red" stroke="red" stroke-linecap="round" stroke-linejoin="round" stroke-width="4" d="M3.76 617.14a16.16 16.16 0 1 1 32.3 0 16.16 16.16 0 0 1-32.3 0zm251.32-152.2a16.16 16.16 0 1 1 32.31 0 16.16 16.16 0 0 1-32.31 0zM509.64 616.8a16.16 16.16 0 1 1 32.31 0 16.16 16.16 0 0 1-32.31 0zm-4.53-296.05a16.16 16.16 0 1 1 32.31 0 16.16 16.16 0 0 1-32.3 0zm506.2 148.83a16.16 16.16 0 1 1 32.32 0 16.16 16.16 0 0 1-32.32 0zm0 141.67a16.16 16.16 0 1 1 32.32 0 16.16 16.16 0 0 1-32.32 0zm255.19-141.67a16.16 16.16 0 1 1 32.31 0 16.16 16.16 0 0 1-32.31 0z"/><text x="419.68" y="26.63" fill="#000" stroke-linecap="butt" stroke-linejoin="miter" stroke-width="1" font-family="font-AcariSans-Light" font-size="24" font-weight="normal" text-anchor="middle" transform="scale(1.8533)">· *</text><text x="281.11" y="102.48" fill="#000" stroke-linecap="butt" stroke-linejoin="miter" stroke-width="1" font-family="font-AcariSans-Light" font-size="24" font-weight="normal" text-anchor="middle" transform="scale(1.8533)">∪</text><text x="145.68" y="181" fill="#000" stroke-linecap="butt" stroke-linejoin="miter" stroke-width="1" font-family="font-AcariSans-Light" font-size="24" font-weight="normal" text-anchor="middle" transform="scale(1.8533)">∩</text><text x="10.44" y="260.68" fill="#000" stroke-linecap="butt" stroke-linejoin="miter" stroke-width="1" font-family="font-AcariSans-Light" font-size="24" font-weight="normal" text-anchor="middle" transform="scale(1.8533)">&apos;</text><text x="555.04" y="102.48" fill="#000" stroke-linecap="butt" stroke-linejoin="miter" stroke-width="1" font-family="font-AcariSans-Light" font-size="24" font-weight="normal" text-anchor="middle" transform="scale(1.8533)">&amp;</text><text x="692.19" y="181.22" fill="#000" stroke-linecap="butt" stroke-linejoin="miter" stroke-width="1" font-family="font-AcariSans-Light" font-size="24" font-weight="normal" text-anchor="middle" transform="scale(1.8533)">!/</text><text x="419.2" y="100.51" fill="#000" stroke-linecap="butt" stroke-linejoin="miter" stroke-width="1" font-family="font-AcariSans-Light" font-size="24" font-weight="normal" text-anchor="middle" transform="scale(1.8533)">⟲</text><path stroke="#000" stroke-dasharray="20,15" stroke-linecap="round" stroke-linejoin="round" stroke-width="3" d="M1208.93 162.07c-95.34 5.44-180.43 118.13-180.9 273.73"/></g></svg>